<svg width="35" height="35" viewBox="0 0 35 35" fill="none" xmlns="http://www.w3.org/2000/svg">
<circle cx="17.5" cy="17.5" r="17.5" fill="white"/>
<path d="M24.2288 10.496L22.9493 11.4901L17.5012 15.5162L12.0532 11.4504L10.7737 10.4563C10.4722 10.2083 10.1042 10.0537 9.71533 10.0116C9.32641 9.9696 8.93363 10.042 8.58565 10.2197C8.23768 10.3975 7.9498 10.6729 7.75768 11.0118C7.56556 11.3507 7.47765 11.7382 7.50483 12.1264V23.648C7.50483 24.0066 7.64807 24.3505 7.90302 24.604C8.15798 24.8576 8.50378 25 8.86434 25H12.0532V17.3255L17.5012 21.3914L22.9493 17.3255V25H26.1381C26.4987 25 26.8445 24.8576 27.0995 24.604C27.3544 24.3505 27.4977 24.0066 27.4977 23.648V12.1264C27.5164 11.7416 27.4224 11.3597 27.227 11.0271C27.0316 10.6945 26.7433 10.4255 26.397 10.2528C26.0508 10.0801 25.6615 10.0112 25.2766 10.0543C24.8917 10.0975 24.5277 10.251 24.2288 10.496Z" fill="black" fill-opacity="0.9"/>
</svg>
