<svg width="35" height="35" viewBox="0 0 35 35" fill="none" xmlns="http://www.w3.org/2000/svg">
<circle cx="17.5" cy="17.5" r="17.5" fill="white"/>
<path d="M26.442 13.8128C26.4319 13.057 26.2902 12.3087 26.0232 11.6015C25.7917 11.0049 25.438 10.4631 24.9848 10.0106C24.5317 9.55823 23.989 9.20516 23.3914 8.974C22.692 8.71191 21.9532 8.57019 21.2064 8.55488C20.2448 8.51197 19.9399 8.5 17.499 8.5C15.0581 8.5 14.7452 8.5 13.7906 8.55488C13.0441 8.57031 12.3057 8.71202 11.6066 8.974C11.0089 9.205 10.4661 9.55801 10.013 10.0104C9.55977 10.4629 9.20618 11.0048 8.97479 11.6015C8.71174 12.2991 8.57009 13.0365 8.55598 13.7819C8.51299 14.7428 8.5 15.0472 8.5 17.484C8.5 19.9209 8.5 20.2322 8.55598 21.1862C8.57097 21.9326 8.71191 22.6691 8.97479 23.3686C9.20656 23.9651 9.56042 24.5068 10.0138 24.959C10.4671 25.4113 11.0099 25.7641 11.6076 25.9951C12.3047 26.2677 13.0434 26.4196 13.7916 26.4441C14.7542 26.487 15.0591 26.5 17.5 26.5C19.9409 26.5 20.2538 26.5 21.2084 26.4441C21.9552 26.4294 22.6941 26.2881 23.3934 26.026C23.9908 25.7946 24.5334 25.4414 24.9865 24.989C25.4396 24.5367 25.7934 23.995 26.0252 23.3985C26.2881 22.7 26.429 21.9636 26.444 21.2162C26.487 20.2562 26.5 19.9518 26.5 17.514C26.498 15.0771 26.498 14.7678 26.442 13.8128ZM17.493 22.0923C14.9401 22.0923 12.8721 20.0277 12.8721 17.479C12.8721 14.9304 14.9401 12.8658 17.493 12.8658C18.7186 12.8658 19.8939 13.3518 20.7605 14.217C21.6271 15.0821 22.114 16.2555 22.114 17.479C22.114 18.7026 21.6271 19.876 20.7605 20.7411C19.8939 21.6063 18.7186 22.0923 17.493 22.0923ZM22.2979 13.7709C22.1563 13.771 22.0162 13.7433 21.8854 13.6893C21.7546 13.6352 21.6357 13.556 21.5357 13.4561C21.4356 13.3562 21.3562 13.2375 21.3021 13.107C21.248 12.9764 21.2202 12.8364 21.2203 12.6951C21.2203 12.5539 21.2482 12.4141 21.3023 12.2837C21.3565 12.1532 21.4358 12.0347 21.5358 11.9348C21.6358 11.835 21.7545 11.7558 21.8852 11.7018C22.0159 11.6477 22.1559 11.6199 22.2974 11.6199C22.4388 11.6199 22.5789 11.6477 22.7095 11.7018C22.8402 11.7558 22.9589 11.835 23.0589 11.9348C23.1589 12.0347 23.2383 12.1532 23.2924 12.2837C23.3465 12.4141 23.3744 12.5539 23.3744 12.6951C23.3744 13.2899 22.8926 13.7709 22.2979 13.7709Z" fill="black" fill-opacity="0.9"/>
<path d="M17.493 20.4758C19.1508 20.4758 20.4947 19.1341 20.4947 17.4791C20.4947 15.8241 19.1508 14.4824 17.493 14.4824C15.8352 14.4824 14.4913 15.8241 14.4913 17.4791C14.4913 19.1341 15.8352 20.4758 17.493 20.4758Z" fill="black" fill-opacity="0.9"/>
</svg>
